<svg id="visual" viewBox="0 0 900 450" width="900" height="450" xmlns="http://www.w3.org/2000/svg" xmlns:xlink="http://www.w3.org/1999/xlink" version="1.1"><rect x="0" y="0" width="900" height="450" fill="#001220"></rect><path d="M0 277L21.5 283.7C43 290.3 86 303.7 128.8 306.7C171.7 309.7 214.3 302.3 257.2 300.7C300 299 343 303 385.8 297.8C428.7 292.7 471.3 278.3 514.2 282C557 285.7 600 307.3 642.8 309.2C685.7 311 728.3 293 771.2 292.7C814 292.3 857 309.7 878.5 318.3L900 327L900 451L878.5 451C857 451 814 451 771.2 451C728.3 451 685.7 451 642.8 451C600 451 557 451 514.2 451C471.3 451 428.7 451 385.8 451C343 451 300 451 257.2 451C214.3 451 171.7 451 128.8 451C86 451 43 451 21.5 451L0 451Z" fill="#fa7268"></path><path d="M0 312L21.5 317.7C43 323.3 86 334.7 128.8 339.8C171.7 345 214.3 344 257.2 343.3C300 342.7 343 342.3 385.8 341.3C428.7 340.3 471.3 338.7 514.2 335.7C557 332.7 600 328.3 642.8 327.7C685.7 327 728.3 330 771.2 333.7C814 337.3 857 341.7 878.5 343.8L900 346L900 451L878.5 451C857 451 814 451 771.2 451C728.3 451 685.7 451 642.8 451C600 451 557 451 514.2 451C471.3 451 428.7 451 385.8 451C343 451 300 451 257.2 451C214.3 451 171.7 451 128.8 451C86 451 43 451 21.5 451L0 451Z" fill="#ef5f67"></path><path d="M0 369L21.5 367.2C43 365.3 86 361.7 128.8 356.2C171.7 350.7 214.3 343.3 257.2 345.7C300 348 343 360 385.8 367.2C428.7 374.3 471.3 376.7 514.2 370C557 363.3 600 347.7 642.8 347.7C685.7 347.7 728.3 363.3 771.2 368.7C814 374 857 369 878.5 366.5L900 364L900 451L878.5 451C857 451 814 451 771.2 451C728.3 451 685.7 451 642.8 451C600 451 557 451 514.2 451C471.3 451 428.7 451 385.8 451C343 451 300 451 257.2 451C214.3 451 171.7 451 128.8 451C86 451 43 451 21.5 451L0 451Z" fill="#e34c67"></path><path d="M0 364L21.5 369.2C43 374.3 86 384.7 128.8 388.5C171.7 392.3 214.3 389.7 257.2 389C300 388.3 343 389.7 385.8 391C428.7 392.3 471.3 393.7 514.2 395.2C557 396.7 600 398.3 642.8 393.2C685.7 388 728.3 376 771.2 375.3C814 374.7 857 385.3 878.5 390.7L900 396L900 451L878.5 451C857 451 814 451 771.2 451C728.3 451 685.7 451 642.8 451C600 451 557 451 514.2 451C471.3 451 428.7 451 385.8 451C343 451 300 451 257.2 451C214.3 451 171.7 451 128.8 451C86 451 43 451 21.5 451L0 451Z" fill="#d53867"></path><path d="M0 427L21.5 422.7C43 418.3 86 409.7 128.8 405.7C171.7 401.7 214.3 402.3 257.2 403.7C300 405 343 407 385.8 409.7C428.7 412.3 471.3 415.7 514.2 418.3C557 421 600 423 642.8 422.5C685.7 422 728.3 419 771.2 418C814 417 857 418 878.5 418.5L900 419L900 451L878.5 451C857 451 814 451 771.2 451C728.3 451 685.7 451 642.8 451C600 451 557 451 514.2 451C471.3 451 428.7 451 385.8 451C343 451 300 451 257.2 451C214.3 451 171.7 451 128.8 451C86 451 43 451 21.5 451L0 451Z" fill="#c62368"></path></svg>