<svg id="visual" viewBox="0 0 1920 1080" width="1920" height="1080" xmlns="http://www.w3.org/2000/svg" xmlns:xlink="http://www.w3.org/1999/xlink" version="1.1"><rect x="0" y="0" width="1920" height="1080" fill="#fff"></rect><g transform="translate(-46.36282280495874 -24.11122970659693)"><path d="M608.4 -726.1C765.2 -593.6 852.8 -379.7 906.6 -148.9C960.4 81.9 980.3 329.7 888.6 536.1C796.9 742.4 593.6 907.3 379.3 941.7C165.1 976 -60.1 879.9 -300.5 802.4C-540.9 725 -796.6 666.2 -848.7 518C-900.9 369.8 -749.6 132.2 -678.4 -93.2C-607.1 -318.5 -616 -531.6 -516.2 -674.1C-416.5 -816.7 -208.3 -888.9 8.8 -899.3C225.8 -909.8 451.7 -858.6 608.4 -726.1" fill="#FAF4B7"></path></g></svg>